<?xml version="1.0" encoding="UTF-8"?>
<svg id="Laag_1" xmlns="http://www.w3.org/2000/svg" version="1.1" viewBox="0 0 793.7 425.2">
  <!-- Generator: Adobe Illustrator 30.0.0, SVG Export Plug-In . SVG Version: 2.1.1 Build 123)  -->
  <defs>
    <style>
      .st0 {
        fill: #1d1d1b;
      }

      .st1 {
        fill: #e20613;
      }
    </style>
  </defs>
  <g>
    <path class="st1" d="M366.62,284.23v13.14c0,8.71,7.06,15.77,15.77,15.77h36.8v-2.63c0-2.9-2.35-5.26-5.26-5.26h-26.29c-4.36,0-7.89-3.53-7.89-7.89v-13.14c0-4.36,3.53-7.89,7.89-7.89h26.29c2.9,0,5.26-2.35,5.26-5.26v-2.63h-36.8c-8.71,0-15.77,7.06-15.77,15.77Z"/>
    <path class="st1" d="M463.11,271.08c0,2.9,2.35,5.26,5.26,5.26h14.46v36.8h7.89c2.9,0,5.26-2.35,5.26-5.26v-31.55h14.46c2.9,0,5.26-2.35,5.26-5.26v-2.63h-52.58v2.63Z"/>
    <path class="st1" d="M85.04,284.23v13.14c0,8.71,7.06,15.77,15.77,15.77h36.8v-2.63c0-2.9-2.35-5.26-5.26-5.26h-26.29c-4.35,0-7.89-3.53-7.89-7.89v-13.14c0-4.36,3.53-7.89,7.89-7.89h26.29c2.9,0,5.26-2.35,5.26-5.26v-2.63h-36.8c-8.71,0-15.77,7.06-15.77,15.77Z"/>
    <path class="st1" d="M103.97,292.11v2.63h22.33c2.9,0,5.26-2.35,5.26-5.26v-2.63h-22.32c-2.9,0-5.26,2.35-5.26,5.26Z"/>
    <path class="st1" d="M270.13,284.23v13.14c0,8.71,7.06,15.77,15.77,15.77h36.8v-2.63c0-2.9-2.35-5.26-5.26-5.26h-26.29c-4.36,0-7.89-3.53-7.89-7.89v-13.14c0-4.36,3.53-7.89,7.89-7.89h26.29c2.9,0,5.26-2.35,5.26-5.26v-2.63h-36.8c-8.71,0-15.77,7.06-15.77,15.77Z"/>
    <path class="st1" d="M289.06,292.11v2.63h22.33c2.9,0,5.26-2.35,5.26-5.26v-2.63h-22.32c-2.9,0-5.26,2.35-5.26,5.26Z"/>
    <path class="st1" d="M220.96,305.26h-18.4c-4.36,0-7.89-3.53-7.89-7.89v-28.92h-13.14v28.92c0,8.71,7.06,15.77,15.77,15.77h28.92v-2.63c0-2.9-2.35-5.26-5.26-5.26Z"/>
    <path class="st1" d="M612.16,282.23c.36-7.55-5.66-13.78-13.13-13.78h-34.17c-2.9,0-5.26,2.35-5.26,5.26v39.43h7.89c2.9,0,5.26-2.35,5.26-5.26v-31.55h20.81c2.75,0,5.2,2.01,5.46,4.74.3,3.14-2.16,5.77-5.23,5.77h-7.89c-2.9,0-5.26,2.35-5.26,5.26v2.63l19.7,16.98c.75.9,1.87,1.42,3.04,1.42h6.81c1.69,0,2.61-1.97,1.52-3.26l-17.49-15.14h4.45c7.08,0,13.17-5.44,13.5-12.51Z"/>
    <path class="st1" d="M703.4,268.45h-31.55c-8.71,0-15.77,7.06-15.77,15.77v28.92h13.14v-28.92c0-4.36,3.53-7.89,7.89-7.89h18.4v13.3h-13.14c-2.9,0-5.26,2.35-5.26,5.26v2.63h18.4v15.62h13.14v-39.43c0-2.9-2.35-5.26-5.26-5.26Z"/>
  </g>
  <path class="st1" d="M461.68,338.72h-11.59c-2.05,0-3.94,1.09-4.97,2.87l-28.41,49.2c-8.83,15.29-30.9,15.29-39.73,0l-28.41-49.2c-1.02-1.77-2.92-2.87-4.97-2.87h-11.59c-4.41,0-7.17,4.78-4.97,8.6l32.55,56.37c16.55,28.67,57.94,28.67,74.49,0l32.55-56.37c2.21-3.82-.55-8.6-4.97-8.6Z"/>
  <g>
    <path class="st0" d="M94.63,173.76h-43.28c-6.96,0-12.6-5.64-12.6-12.6s5.64-12.6,12.6-12.6h59.16c5.71,0,10.33-4.63,10.33-10.34v-11.63H34.56c-19.09,0-34.56,15.47-34.56,34.56h0c0,19.09,15.47,34.56,34.56,34.56h43.28c6.96,0,12.6,5.64,12.6,12.6s-5.64,12.6-12.6,12.6H15.48c-5.71,0-10.33,4.63-10.33,10.34v11.63h89.49c19.09,0,34.56-15.47,34.56-34.56h0c0-19.09-15.47-34.56-34.56-34.56Z"/>
    <path class="st0" d="M609.6,126.61h-85.26c-19.98,0-36.17,16.2-36.17,36.17v80.1h28.42c5.71,0,10.33-4.63,10.33-10.33v-73.64c0-5.71,4.63-10.33,10.34-10.33h43.92v30.66h-33.59c-5.71,0-10.34,4.63-10.34,10.34v11.63h43.92v41.68h38.76v-105.93c0-5.71-4.63-10.33-10.34-10.33Z"/>
    <path class="st0" d="M439.65,126.61h-85.26c-19.98,0-36.17,16.2-36.17,36.17v80.1h28.42c5.71,0,10.33-4.63,10.33-10.33v-73.64c0-5.71,4.63-10.33,10.34-10.33h43.92v30.66h-33.59c-5.71,0-10.33,4.63-10.33,10.34v11.63h43.92v41.68h38.76v-105.93c0-5.71-4.63-10.33-10.34-10.33Z"/>
    <path class="st0" d="M257.16,126.61l-84.28.02c-5.71,0-10.33,4.63-10.33,10.33v105.92h28.42c5.71,0,10.33-4.63,10.33-10.33v-83.96l39.17.02c6.94,0,12.56,5.62,12.56,12.56s-5.62,12.56-12.56,12.56l-18.5.05c-5.71,0-10.33,4.63-10.33,10.33v11.63l45.53-.02c19.08,0,34.55-15.47,34.55-34.55s-15.47-34.55-34.55-34.55Z"/>
    <path class="st0" d="M750.26,195.72h8.88c19.08,0,34.55-15.47,34.55-34.56s-15.47-34.55-34.55-34.55l-89.41.02c-5.71,0-10.33,4.63-10.33,10.33v105.92h28.42c5.71,0,10.33-4.63,10.33-10.33v-83.96l44.29.02c6.94,0,12.56,5.62,12.56,12.56s-5.62,12.56-12.56,12.56l-23.62.05c-5.71,0-10.33,4.63-10.33,10.33v11.63l47.17,43.46c1.96,2.34,4.86,3.69,7.92,3.69h24.95c4.39,0,6.78-5.13,3.96-8.49l-42.22-38.67Z"/>
  </g>
  <path class="st1" d="M183.64,55.91c-8.83-15.29,2.21-34.41,19.86-34.41h386.68c17.66,0,28.69,19.11,19.86,34.41l-19.14,33.14c-2.18,3.78.55,8.5,4.91,8.5h10.1c3.04,0,5.85-1.62,7.36-4.25l16.62-28.79c16.55-28.67-4.14-64.51-37.25-64.51H201.03c-33.11,0-53.8,35.84-37.25,64.51l16.62,28.79c1.52,2.63,4.33,4.25,7.36,4.25h10.1c4.36,0,7.09-4.72,4.91-8.5l-19.14-33.14Z"/>
</svg>